<mxfile host="Electron" modified="2023-06-15T18:38:01.333Z" agent="Mozilla/5.0 (X11; Linux x86_64) AppleWebKit/537.36 (KHTML, like Gecko) draw.io/21.4.0 Chrome/112.0.5615.204 Electron/24.5.1 Safari/537.36" etag="evASpteBmR76YwyqFxA-" version="21.4.0" type="device">
  <diagram name="Page-1" id="00MXe7RJviamJz7gRrrx">
    <mxGraphModel dx="1488" dy="846" grid="1" gridSize="10" guides="1" tooltips="1" connect="1" arrows="1" fold="1" page="1" pageScale="1" pageWidth="1169" pageHeight="827" math="0" shadow="0">
      <root>
        <mxCell id="0" />
        <mxCell id="1" parent="0" />
        <mxCell id="l-M4XZE8ZX_UDE8bK-pO-1" value="" style="verticalLabelPosition=bottom;verticalAlign=top;html=1;shape=mxgraph.basic.patternFillRect;fillStyle=diag;step=5;fillStrokeWidth=0.2;fillStrokeColor=#dddddd;" vertex="1" parent="1">
          <mxGeometry x="160" y="384" width="120" height="60" as="geometry" />
        </mxCell>
        <mxCell id="l-M4XZE8ZX_UDE8bK-pO-2" value="" style="verticalLabelPosition=bottom;verticalAlign=top;html=1;shape=mxgraph.basic.patternFillRect;fillStyle=diag;step=5;fillStrokeWidth=0.2;fillStrokeColor=#dddddd;" vertex="1" parent="1">
          <mxGeometry x="500" y="384" width="120" height="60" as="geometry" />
        </mxCell>
        <mxCell id="l-M4XZE8ZX_UDE8bK-pO-5" value="" style="verticalLabelPosition=bottom;verticalAlign=top;html=1;shape=mxgraph.basic.patternFillRect;fillStyle=diag;step=5;fillStrokeWidth=0.2;fillStrokeColor=#dddddd;" vertex="1" parent="1">
          <mxGeometry x="810" y="384" width="120" height="60" as="geometry" />
        </mxCell>
        <mxCell id="l-M4XZE8ZX_UDE8bK-pO-6" value="AP" style="text;html=1;align=center;verticalAlign=middle;resizable=0;points=[];autosize=1;strokeColor=none;fillColor=none;" vertex="1" parent="1">
          <mxGeometry x="535" y="399" width="40" height="30" as="geometry" />
        </mxCell>
        <mxCell id="l-M4XZE8ZX_UDE8bK-pO-7" value="DEFRA API" style="text;html=1;align=center;verticalAlign=middle;resizable=0;points=[];autosize=1;strokeColor=none;fillColor=none;" vertex="1" parent="1">
          <mxGeometry x="820" y="399" width="90" height="30" as="geometry" />
        </mxCell>
        <mxCell id="l-M4XZE8ZX_UDE8bK-pO-8" value="Flood Monitor" style="text;html=1;align=center;verticalAlign=middle;resizable=0;points=[];autosize=1;strokeColor=none;fillColor=none;" vertex="1" parent="1">
          <mxGeometry x="165" y="399" width="100" height="30" as="geometry" />
        </mxCell>
        <mxCell id="l-M4XZE8ZX_UDE8bK-pO-9" value="" style="html=1;labelBackgroundColor=#ffffff;endArrow=classic;endFill=1;endSize=6;jettySize=auto;orthogonalLoop=1;strokeWidth=1;fontSize=14;rounded=0;exitX=1;exitY=0.25;exitDx=0;exitDy=0;exitPerimeter=0;entryX=0;entryY=0.25;entryDx=0;entryDy=0;entryPerimeter=0;" edge="1" parent="1" source="l-M4XZE8ZX_UDE8bK-pO-1" target="l-M4XZE8ZX_UDE8bK-pO-2">
          <mxGeometry width="60" height="60" relative="1" as="geometry">
            <mxPoint x="550" y="460" as="sourcePoint" />
            <mxPoint x="610" y="400" as="targetPoint" />
          </mxGeometry>
        </mxCell>
        <mxCell id="l-M4XZE8ZX_UDE8bK-pO-10" value="" style="html=1;labelBackgroundColor=#ffffff;endArrow=classic;endFill=1;endSize=6;jettySize=auto;orthogonalLoop=1;strokeWidth=1;fontSize=14;rounded=0;entryX=1;entryY=0.75;entryDx=0;entryDy=0;entryPerimeter=0;exitX=0;exitY=0.75;exitDx=0;exitDy=0;exitPerimeter=0;" edge="1" parent="1" source="l-M4XZE8ZX_UDE8bK-pO-2" target="l-M4XZE8ZX_UDE8bK-pO-1">
          <mxGeometry width="60" height="60" relative="1" as="geometry">
            <mxPoint x="550" y="460" as="sourcePoint" />
            <mxPoint x="610" y="400" as="targetPoint" />
          </mxGeometry>
        </mxCell>
        <mxCell id="l-M4XZE8ZX_UDE8bK-pO-11" value="" style="html=1;labelBackgroundColor=#ffffff;endArrow=classic;endFill=1;endSize=6;jettySize=auto;orthogonalLoop=1;strokeWidth=1;fontSize=14;rounded=0;entryX=0;entryY=0.25;entryDx=0;entryDy=0;entryPerimeter=0;exitX=1;exitY=0.25;exitDx=0;exitDy=0;exitPerimeter=0;" edge="1" parent="1" source="l-M4XZE8ZX_UDE8bK-pO-2" target="l-M4XZE8ZX_UDE8bK-pO-5">
          <mxGeometry width="60" height="60" relative="1" as="geometry">
            <mxPoint x="550" y="460" as="sourcePoint" />
            <mxPoint x="610" y="400" as="targetPoint" />
          </mxGeometry>
        </mxCell>
        <mxCell id="l-M4XZE8ZX_UDE8bK-pO-12" value="" style="html=1;labelBackgroundColor=#ffffff;endArrow=classic;endFill=1;endSize=6;jettySize=auto;orthogonalLoop=1;strokeWidth=1;fontSize=14;rounded=0;entryX=1;entryY=0.75;entryDx=0;entryDy=0;entryPerimeter=0;exitX=0;exitY=0.75;exitDx=0;exitDy=0;exitPerimeter=0;" edge="1" parent="1" source="l-M4XZE8ZX_UDE8bK-pO-5" target="l-M4XZE8ZX_UDE8bK-pO-2">
          <mxGeometry width="60" height="60" relative="1" as="geometry">
            <mxPoint x="550" y="460" as="sourcePoint" />
            <mxPoint x="610" y="400" as="targetPoint" />
          </mxGeometry>
        </mxCell>
        <mxCell id="l-M4XZE8ZX_UDE8bK-pO-14" value="HTTP Request" style="text;html=1;align=center;verticalAlign=middle;resizable=0;points=[];autosize=1;strokeColor=none;fillColor=none;" vertex="1" parent="1">
          <mxGeometry x="330" y="354" width="100" height="30" as="geometry" />
        </mxCell>
        <mxCell id="l-M4XZE8ZX_UDE8bK-pO-15" value="HTTP Response" style="text;html=1;align=center;verticalAlign=middle;resizable=0;points=[];autosize=1;strokeColor=none;fillColor=none;" vertex="1" parent="1">
          <mxGeometry x="660" y="440" width="110" height="30" as="geometry" />
        </mxCell>
        <mxCell id="l-M4XZE8ZX_UDE8bK-pO-16" value="Flood Monitor Architecture" style="text;html=1;align=center;verticalAlign=middle;resizable=0;points=[];autosize=1;strokeColor=none;fillColor=none;" vertex="1" parent="1">
          <mxGeometry x="485" y="235" width="160" height="30" as="geometry" />
        </mxCell>
      </root>
    </mxGraphModel>
  </diagram>
</mxfile>
